<svg width="1920" height="1080" viewBox="0 0 1920 1080" xmlns="http://www.w3.org/2000/svg"><rect width="1920" height="1080" fill="#0472a9"/><path d="M1920,1080C1601.1666666666667,1107,276,1158.6666666666667,0,1080C-276,1001.3333333333334,172.83333333333331,652.8333333333334,264,608C355.1666666666667,563.1666666666666,454,845.6666666666666,547,811C640,776.3333333333334,732.1666666666666,449,822,400C911.8333333333334,351,996.1666666666666,479.6666666666667,1086,517C1175.8333333333333,554.3333333333334,1268.6666666666667,645.6666666666666,1361,624C1453.3333333333333,602.3333333333334,1548,338,1640,387C1732,436,1866.3333333333333,802.5,1913,918C1959.6666666666667,1033.5,2238.8333333333335,1053,1920,1080C1601.1666666666667,1107,276,1158.6666666666667,0,1080" fill="#0d48bf"/></svg>