<svg width="1920" height="1080" viewBox="0 0 1920 1080" xmlns="http://www.w3.org/2000/svg"><rect width="1920" height="1080" fill="#0d48bf"/><path d="M1920,1080C1601.6666666666667,1138,275,1169.6666666666667,0,1080C-275,990.3333333333334,180,632.6666666666666,270,542C360,451.3333333333333,449.5,514.6666666666666,540,536C630.5,557.3333333333334,722.1666666666666,610.3333333333334,813,670C903.8333333333334,729.6666666666666,992.3333333333334,858.5,1085,894C1177.6666666666667,929.5,1276.6666666666667,942.1666666666666,1369,883C1461.3333333333333,823.8333333333334,1548.8333333333333,564.1666666666666,1639,539C1729.1666666666667,513.8333333333334,1863.1666666666667,641.8333333333334,1910,732C1956.8333333333333,822.1666666666666,2238.3333333333335,1022,1920,1080C1601.6666666666667,1138,275,1169.6666666666667,0,1080" fill="#0472a9"/></svg>