<svg width="1920" height="1080" viewBox="0 0 1920 1080" xmlns="http://www.w3.org/2000/svg"><rect width="1920" height="1080" fill="#5a115f"/><path d="M1920,1080C1600.5,1173.6666666666667,297.6666666666667,1137,0,1080C-297.6666666666667,1023,88.5,846,134,738C179.5,630,227.5,443,273,432C318.5,421,361.8333333333333,573.6666666666666,407,672C452.1666666666667,770.3333333333334,497.6666666666667,1056.6666666666667,544,1022C590.3333333333334,987.3333333333334,638.6666666666666,539.1666666666666,685,464C731.3333333333334,388.8333333333333,777.1666666666666,474.6666666666667,822,571C866.8333333333334,667.3333333333334,909,1011.8333333333334,954,1042C999,1072.1666666666667,1045.6666666666667,780.1666666666666,1092,752C1138.3333333333333,723.8333333333334,1186,889.3333333333334,1232,873C1278,856.6666666666666,1322.3333333333333,710.1666666666666,1368,654C1413.6666666666667,597.8333333333334,1460,552,1506,536C1552,520,1598.5,572.5,1644,558C1689.5,543.5,1733.5,455.6666666666667,1779,449C1824.5,442.3333333333333,1893.5,412.8333333333333,1917,518C1940.5,623.1666666666666,2239.5,986.3333333333334,1920,1080C1600.5,1173.6666666666667,297.6666666666667,1137,0,1080" fill="#916988"/></svg>