<svg width="1920" height="1080" viewBox="0 0 1920 1080" xmlns="http://www.w3.org/2000/svg"><rect width="1920" height="1080" fill="#5a115f"/><path d="M1920,1080C1600.1666666666667,1126,296.5,1121.8333333333333,0,1080C-296.5,1038.1666666666667,92,831.3333333333334,141,829C190,826.6666666666666,243.83333333333334,1070.6666666666667,294,1066C344.1666666666667,1061.3333333333333,392.6666666666667,850.1666666666666,442,801C491.3333333333333,751.8333333333334,541.1666666666666,747,590,771C638.8333333333334,795,686,919.5,735,945C784,970.5,835,937.8333333333334,884,924C933,910.1666666666666,980.1666666666666,877.3333333333334,1029,862C1077.8333333333333,846.6666666666666,1127.5,836.3333333333334,1177,832C1226.5,827.6666666666666,1276.3333333333333,815,1326,836C1375.6666666666667,857,1426,938.5,1475,958C1524,977.5,1570.8333333333333,983.8333333333334,1620,953C1669.1666666666667,922.1666666666666,1720.1666666666667,797.8333333333334,1770,773C1819.8333333333333,748.1666666666666,1894,752.8333333333334,1919,804C1944,855.1666666666666,2239.8333333333335,1034,1920,1080C1600.1666666666667,1126,296.5,1121.8333333333333,0,1080" fill="#916988"/></svg>