<svg width="1920" height="1080" viewBox="0 0 1920 1080" xmlns="http://www.w3.org/2000/svg"><rect width="1920" height="1080" fill="#247cb2"/><path d="M 0,1080 C 0,1080 0,180 0,180 C 127.7794871794872,201.21794871794873 255.5589743589744,222.43589743589746 369,230 C 482.4410256410256,237.56410256410254 581.5435897435897,231.47435897435892 692,217 C 802.4564102564103,202.52564102564108 924.2666666666667,179.66666666666669 1010,157 C 1095.7333333333333,134.33333333333331 1145.3897435897436,111.85897435897436 1254,123 C 1362.6102564102564,134.14102564102564 1530.1743589743592,178.89743589743588 1651,194 C 1771.8256410256408,209.10256410256412 1845.9128205128204,194.55128205128204 1920,180 C 1920,180 1920,1080 1920,1080 Z" fill="#ffffff" opacity="0.09999999999999999"/><path d="M 0,1080 C 0,1080 0,360 0,360 C 123.12051282051283,359.3564102564103 246.24102564102566,358.71282051282054 344,339 C 441.75897435897434,319.28717948717946 514.1564102564101,280.50512820512824 608,299 C 701.8435897435899,317.49487179487176 817.1333333333334,393.2666666666666 922,405 C 1026.8666666666666,416.7333333333334 1121.3102564102564,364.42820512820515 1247,335 C 1372.6897435897436,305.57179487179485 1529.625641025641,299.0205128205128 1647,307 C 1764.374358974359,314.9794871794872 1842.1871794871795,337.4897435897436 1920,360 C 1920,360 1920,1080 1920,1080 Z" fill="#ffffff" opacity="0.19999999999999998"/><path d="M 0,1080 C 0,1080 0,540 0,540 C 135.03589743589745,503.55384615384617 270.0717948717949,467.1076923076923 369,474 C 467.9282051282051,480.8923076923077 530.7487179487177,531.123076923077 617,562 C 703.2512820512823,592.876923076923 812.9333333333336,604.4000000000001 922,579 C 1031.0666666666664,553.5999999999999 1139.5179487179487,491.27692307692297 1266,479 C 1392.4820512820513,466.72307692307703 1536.9948717948719,504.4923076923077 1649,523 C 1761.0051282051281,541.5076923076923 1840.502564102564,540.7538461538461 1920,540 C 1920,540 1920,1080 1920,1080 Z" fill="#ffffff" opacity="0.3"/><path d="M 0,1080 C 0,1080 0,720 0,720 C 88.49487179487181,722.5282051282052 176.98974358974363,725.0564102564102 281,721 C 385.0102564102564,716.9435897435898 504.53589743589737,706.3025641025641 608,703 C 711.4641025641026,699.6974358974359 798.8666666666668,703.7333333333333 927,714 C 1055.1333333333332,724.2666666666667 1223.997435897436,740.7641025641026 1335,737 C 1446.002564102564,733.2358974358974 1499.14358974359,709.2102564102564 1587,703 C 1674.85641025641,696.7897435897436 1797.428205128205,708.3948717948717 1920,720 C 1920,720 1920,1080 1920,1080 Z" fill="#ffffff" opacity="0.39999999999999997"/><path d="M 0,1080 C 0,1080 0,900 0,900 C 106.96410256410257,912.0076923076923 213.92820512820515,924.0153846153846 325,908 C 436.07179487179485,891.9846153846154 551.251282051282,847.9461538461538 665,838 C 778.748717948718,828.0538461538462 891.0666666666666,852.2 979,876 C 1066.9333333333334,899.8 1130.4820512820515,923.2538461538461 1246,935 C 1361.5179487179485,946.7461538461539 1529.0051282051281,946.7846153846153 1650,939 C 1770.9948717948719,931.2153846153847 1845.497435897436,915.6076923076923 1920,900 C 1920,900 1920,1080 1920,1080 Z" fill="#ffffff" opacity="0.49999999999999994"/></svg>